<?xml version="1.0" standalone="no"?><!DOCTYPE svg PUBLIC "-//W3C//DTD SVG 1.1//EN" "http://www.w3.org/Graphics/SVG/1.1/DTD/svg11.dtd"><svg t="1777453787785" class="icon" viewBox="0 0 1024 1024" version="1.1" xmlns="http://www.w3.org/2000/svg" p-id="1819" xmlns:xlink="http://www.w3.org/1999/xlink" width="200" height="200"><path d="M833.386667 269.653333H302.293333a58.666667 58.666667 0 1 1 0-117.333333h127.04a32 32 0 0 0 23.68 10.666667H469.333333a96 96 0 0 0 90.453334 64h53.333333a21.333333 21.333333 0 0 0 21.333333-21.333334v-10.666666h53.333334a21.333333 21.333333 0 0 0 0-42.666667h-53.333334v-42.666667h53.333334a21.333333 21.333333 0 1 0 0-42.666666h-53.333334v-10.666667a21.333333 21.333333 0 0 0-21.333333-21.333333h-53.333333a96 96 0 0 0-90.453334 64h-16.32a32 32 0 0 0-23.68 10.666666H302.293333a101.333333 101.333333 0 0 0 0 202.666667h531.093334a85.333333 85.333333 0 0 1 85.333333 85.333333v254.186667a85.333333 85.333333 0 0 1-85.333333 85.333333h-32l-4.693334-96A52.693333 52.693333 0 0 0 783.36 608h29.653333a17.6 17.6 0 0 0 17.6-17.6v-26.666667a17.6 17.6 0 0 0-17.6-17.6h-71.786666L682.666667 377.92a26.56 26.56 0 0 0-25.066667-17.706667H231.893333a26.56 26.56 0 0 0-25.066666 17.706667l-58.88 168H80.213333a17.6 17.6 0 0 0-17.6 17.6v26.666667A17.6 17.6 0 0 0 80.213333 608h29.653334A53.333333 53.333333 0 0 0 96 640.64L84.053333 890.773333v80.533334a17.706667 17.706667 0 0 0 17.706667 17.706666h88.426667a17.706667 17.706667 0 0 0 17.706666-17.706666v-80.533334h477.546667v80.533334a17.706667 17.706667 0 0 0 17.706667 17.706666h88.426666a17.6 17.6 0 0 0 17.6-17.706666v-80.533334l-5.333333-110.933333h29.546667a128 128 0 0 0 128-128V397.653333a128 128 0 0 0-128-128z m-273.706667-192h32v106.666667h-32a53.333333 53.333333 0 0 1 0-106.666667z m-364.266667 448l40.64-118.186666a17.706667 17.706667 0 0 1 16.746667-11.84h384a17.706667 17.706667 0 0 1 16.746667 11.84L693.333333 525.546667a35.413333 35.413333 0 0 1-33.493333 46.933333h-430.933333a35.413333 35.413333 0 0 1-33.493334-46.933333zM222.293333 832a49.6 49.6 0 0 1-14.4-2.24h-0.853333a52.48 52.48 0 1 1 15.253333 2.453333z m339.306667-26.453333A17.706667 17.706667 0 0 1 544 823.573333H349.333333a17.706667 17.706667 0 0 1-17.6-17.706666v-53.333334a17.6 17.6 0 0 1 17.6-17.706666H544a17.706667 17.706667 0 0 1 17.706667 17.706666zM670.933333 832a53.973333 53.973333 0 1 1 15.253334-2.453333h-0.746667a50.346667 50.346667 0 0 1-14.506667 2.453333z" p-id="1820" fill="#ffffff"></path></svg>