<?xml version="1.0" standalone="no"?><!DOCTYPE svg PUBLIC "-//W3C//DTD SVG 1.1//EN" "http://www.w3.org/Graphics/SVG/1.1/DTD/svg11.dtd"><svg t="1774855675535" class="icon" viewBox="0 0 1024 1024" version="1.1" xmlns="http://www.w3.org/2000/svg" p-id="2163" xmlns:xlink="http://www.w3.org/1999/xlink" width="200" height="200"><path d="M944.64 846.848H78.848C35.328 846.848 0 812.032 0 768V256c0-43.52 34.816-78.848 78.848-78.848h866.304c43.52 0 78.848 34.816 78.848 78.848v512c-0.512 44.032-35.84 78.848-79.36 78.848z m39.424-550.912c0-43.52-34.816-78.848-78.848-78.848H118.272c-43.52 0-78.848 34.816-78.848 78.848v433.152c0 43.52 34.816 78.848 78.848 78.848h787.456c43.52 0 78.848-34.816 78.848-78.848l-0.512-433.152z m-117.76 472.576H157.184c-43.52 0-78.848-34.816-78.848-78.848V335.36C78.336 291.84 113.152 256 157.184 256h709.12c43.52 0 78.848 34.816 78.848 78.848v354.304c-0.512 43.52-35.84 79.36-78.848 79.36zM196.608 335.36c-22.016 0-39.424 17.92-39.424 39.424 0 22.016 17.92 39.424 39.424 39.424 22.016 0 39.424-17.92 39.424-39.424 0-22.528-17.408-39.424-39.424-39.424z m0 275.456c-22.016 0-39.424 17.92-39.424 39.424 0 22.016 17.92 39.424 39.424 39.424 22.016 0 39.424-17.92 39.424-39.424 0-22.016-17.408-39.424-39.424-39.424z m629.76 78.336c22.016 0 39.424-17.92 39.424-39.424 0-22.016-17.92-39.424-39.424-39.424-22.016 0-39.424 17.92-39.424 39.424 0 22.528 17.92 39.424 39.424 39.424z m0-353.792c-22.016 0-39.424 17.92-39.424 39.424 0 22.016 17.92 39.424 39.424 39.424 22.016 0 39.424-17.92 39.424-39.424 0.512-22.528-17.408-39.424-39.424-39.424z" fill="#ffffff" p-id="2164"></path></svg>